# xmcd
# Track frame offsets:
# 183
# 10120
# 25373
# 39885
# 51298
# 63733
# 78215
# 94423
# 110555
# 124163
# 137618
# 148328
# 164540
# 177855
# 193030
# 209723
#
# Disc length: 2969 seconds
# Revision: 0
# Processed by: cddbd v1.4PL0 Copyright (c) Steve Scherf et al.
# Submitted via: VisiTrax 2.9.5.180 - For more info visit www.synapsa.com
#
DISCID=ec0b9710
DTITLE=Susan McCann - Country Love Affair
DYEAR=1990
DGENRE=
TTITLE0=Never Ending Love Affair
TTITLE1=Blue Velvet
TTITLE2=Forever And Ever Amen
TTITLE3=Little Ole Wine Drinker Me
TTITLE4=Travellin Light
TTITLE5=Let The Rest Of The World Go By
TTITLE6=Johnny Lovely Johnny
TTITLE7=Two Broken Hearts
TTITLE8=Someone Lookin For Someone Like You
TTITLE9=Irish Eyes
TTITLE10=Boy In Your Arms
TTITLE11=Wind In The Willows
TTITLE12=A Mother´s Love Is A Blessing
TTITLE13=Patches In Heaven
TTITLE14=How Great Thou Art
TTITLE15=When The Sun Says Goodbye To The Mountain
EXTD=
EXTT0=
EXTT1=
EXTT2=
EXTT3=
EXTT4=
EXTT5=
EXTT6=
EXTT7=
EXTT8=
EXTT9=
EXTT10=
EXTT11=
EXTT12=
EXTT13=
EXTT14=
EXTT15=
PLAYORDER=
